<svg id="earn-icon" xmlns="http://www.w3.org/2000/svg" width="42.101" height="42.101" viewBox="0 0 42.101 42.101">
  <path id="Path_2127" data-name="Path 2127" d="M141.209,126.981l-2.613-5.295a1.233,1.233,0,0,0-2.212,0l-2.613,5.295-5.843.849a1.233,1.233,0,0,0-.684,2.1l4.228,4.121-1,5.819a1.233,1.233,0,0,0,1.79,1.3l5.226-2.748,5.226,2.747a1.233,1.233,0,0,0,1.79-1.3l-1-5.819,4.228-4.121a1.233,1.233,0,0,0-.684-2.1Zm.112,5.76a1.234,1.234,0,0,0-.355,1.092l.685,4-3.588-1.886a1.234,1.234,0,0,0-1.148,0l-3.588,1.886.685-4a1.234,1.234,0,0,0-.355-1.092l-2.9-2.829,4.011-.583a1.233,1.233,0,0,0,.929-.675l1.794-3.635,1.794,3.635a1.234,1.234,0,0,0,.929.675l4.011.583Z" transform="translate(-116.44 -111.049)" fill="#909090"/>
  <path id="Path_2128" data-name="Path 2128" d="M21.051,0A21.051,21.051,0,1,0,42.1,21.051,21.1,21.1,0,0,0,21.051,0Zm0,39.634A18.584,18.584,0,1,1,39.634,21.051,18.6,18.6,0,0,1,21.051,39.634Z" fill="#909090"/>
  <path id="Path_2129" data-name="Path 2129" d="M76.117,60A16.117,16.117,0,1,0,92.234,76.117,16.181,16.181,0,0,0,76.117,60Zm0,29.767a13.65,13.65,0,1,1,13.65-13.65A13.665,13.665,0,0,1,76.117,89.767Z" transform="translate(-55.066 -55.066)" fill="#909090"/>
</svg>
