<svg xmlns="http://www.w3.org/2000/svg" width="40.364" height="34.154" viewBox="0 0 40.364 34.154">
  <g id="sell-icon" transform="translate(-6 -10.007)">
    <g id="LINE_35_" transform="translate(10.657 28.637)">
      <g id="Group_653" data-name="Group 653" transform="translate(0)">
        <path id="Path_2111" data-name="Path 2111" d="M41.5,37.112H13.552a1.552,1.552,0,1,1,0-3.1H41.5a1.552,1.552,0,1,1,0,3.1Z" transform="translate(-12 -34.007)" fill="#909090"/>
      </g>
    </g>
    <g id="LINE_36_" transform="translate(37.049 28.637)">
      <g id="Group_654" data-name="Group 654">
        <path id="Path_2112" data-name="Path 2112" d="M47.552,49.532A1.553,1.553,0,0,1,46,47.979V35.559a1.552,1.552,0,0,1,3.1,0v12.42A1.553,1.553,0,0,1,47.552,49.532Z" transform="translate(-46 -34.007)" fill="#909090"/>
      </g>
    </g>
    <g id="LINE_37_" transform="translate(12.21 41.056)">
      <g id="Group_655" data-name="Group 655" transform="translate(0)">
        <path id="Path_2113" data-name="Path 2113" d="M40.392,53.112H15.552a1.552,1.552,0,0,1,0-3.1h24.84a1.552,1.552,0,1,1,0,3.1Z" transform="translate(-14 -50.007)" fill="#909090"/>
      </g>
    </g>
    <g id="LINE_38_" transform="translate(12.21 28.637)">
      <g id="Group_656" data-name="Group 656" transform="translate(0)">
        <path id="Path_2114" data-name="Path 2114" d="M15.552,49.532A1.553,1.553,0,0,1,14,47.979V35.559a1.552,1.552,0,0,1,3.1,0v12.42A1.553,1.553,0,0,1,15.552,49.532Z" transform="translate(-14 -34.007)" fill="#909090"/>
      </g>
    </g>
    <g id="LINE_39_" transform="translate(12.21 10.007)">
      <g id="Group_657" data-name="Group 657" transform="translate(0)">
        <path id="Path_2115" data-name="Path 2115" d="M15.552,19.322A1.553,1.553,0,0,1,14,17.769v-6.21a1.552,1.552,0,1,1,3.1,0v6.21A1.553,1.553,0,0,1,15.552,19.322Z" transform="translate(-14 -10.007)" fill="#909090"/>
      </g>
    </g>
    <g id="LINE_40_" transform="translate(12.21 10.007)">
      <g id="Group_658" data-name="Group 658" transform="translate(0)">
        <path id="Path_2116" data-name="Path 2116" d="M40.392,13.112H15.552a1.552,1.552,0,0,1,0-3.1h24.84a1.552,1.552,0,0,1,0,3.1Z" transform="translate(-14 -10.007)" fill="#909090"/>
      </g>
    </g>
    <g id="LINE_41_" transform="translate(37.049 10.007)">
      <g id="Group_659" data-name="Group 659">
        <path id="Path_2117" data-name="Path 2117" d="M47.552,19.322A1.553,1.553,0,0,1,46,17.769v-6.21a1.552,1.552,0,0,1,3.1,0v6.21A1.553,1.553,0,0,1,47.552,19.322Z" transform="translate(-46 -10.007)" fill="#909090"/>
      </g>
    </g>
    <g id="LINE_42_" transform="translate(37.049 34.847)">
      <g id="Group_660" data-name="Group 660">
        <path id="Path_2118" data-name="Path 2118" d="M52.21,45.112H47.552a1.552,1.552,0,1,1,0-3.1H52.21a1.552,1.552,0,1,1,0,3.1Z" transform="translate(-46 -42.007)" fill="#909090"/>
      </g>
    </g>
    <g id="LINE_43_" transform="translate(7.552 34.847)">
      <g id="Group_661" data-name="Group 661">
        <path id="Path_2119" data-name="Path 2119" d="M14.21,45.112H9.552a1.552,1.552,0,1,1,0-3.1H14.21a1.552,1.552,0,1,1,0,3.1Z" transform="translate(-8 -42.007)" fill="#909090"/>
      </g>
    </g>
    <g id="LINE_44_" transform="translate(7.552 16.217)">
      <g id="Group_662" data-name="Group 662" transform="translate(0 0)">
        <path id="Path_2120" data-name="Path 2120" d="M43.707,21.112H9.552a1.552,1.552,0,0,1,0-3.1H43.707a1.552,1.552,0,1,1,0,3.1Z" transform="translate(-8 -18.007)" fill="#909090"/>
      </g>
    </g>
    <g id="ARC_21_" transform="translate(41.707 33.294)">
      <g id="Group_663" data-name="Group 663" transform="translate(0 0)">
        <path id="Path_2121" data-name="Path 2121" d="M53.552,44.664a1.552,1.552,0,0,1,0-3.1h0a1.551,1.551,0,1,1,3.1,0A3.109,3.109,0,0,1,53.552,44.664Z" transform="translate(-52 -40.007)" fill="#909090"/>
      </g>
    </g>
    <g id="LINE_45_" transform="translate(43.259 17.769)">
      <g id="Group_664" data-name="Group 664">
        <path id="Path_2122" data-name="Path 2122" d="M55.552,38.637A1.553,1.553,0,0,1,54,37.084V21.559a1.552,1.552,0,1,1,3.1,0V37.084A1.553,1.553,0,0,1,55.552,38.637Z" transform="translate(-54 -20.007)" fill="#909090"/>
      </g>
    </g>
    <g id="ARC_22_" transform="translate(41.707 16.217)">
      <g id="Group_665" data-name="Group 665" transform="translate(0 0)">
        <path id="Path_2123" data-name="Path 2123" d="M55.1,22.664a1.553,1.553,0,0,1-1.552-1.552v0a1.552,1.552,0,1,1,0-3.1,3.108,3.108,0,0,1,3.1,3.1A1.553,1.553,0,0,1,55.1,22.664Z" transform="translate(-52 -18.007)" fill="#909090"/>
      </g>
    </g>
    <g id="ARC_23_" transform="translate(6 33.294)">
      <g id="Group_666" data-name="Group 666" transform="translate(0 0)">
        <path id="Path_2124" data-name="Path 2124" d="M9.1,44.664a3.108,3.108,0,0,1-3.1-3.1,1.552,1.552,0,1,1,3.1,0v0a1.552,1.552,0,1,1,0,3.1Z" transform="translate(-6 -40.007)" fill="#909090"/>
      </g>
    </g>
    <g id="LINE_46_" transform="translate(6 17.769)">
      <g id="Group_667" data-name="Group 667">
        <path id="Path_2125" data-name="Path 2125" d="M7.552,38.637A1.553,1.553,0,0,1,6,37.084V21.559a1.552,1.552,0,0,1,3.1,0V37.084A1.553,1.553,0,0,1,7.552,38.637Z" transform="translate(-6 -20.007)" fill="#909090"/>
      </g>
    </g>
    <g id="ARC_24_" transform="translate(6 16.217)">
      <g id="Group_668" data-name="Group 668" transform="translate(0 0)">
        <path id="Path_2126" data-name="Path 2126" d="M7.552,22.664A1.552,1.552,0,0,1,6,21.112a3.108,3.108,0,0,1,3.1-3.1,1.552,1.552,0,1,1,0,3.1h0a1.551,1.551,0,0,1-1.551,1.552Z" transform="translate(-6 -18.007)" fill="#909090"/>
      </g>
    </g>
  </g>
</svg>