<svg xmlns="http://www.w3.org/2000/svg" width="43.605" height="34.256" viewBox="0 0 43.605 34.256">
  <path id="claim-icon" d="M45.117,13.233,37.335,5.451A1.556,1.556,0,0,0,36.23,5h-24.9a1.556,1.556,0,0,0-1.105.451L2.441,13.233a1.556,1.556,0,0,0,0,2.132L22.674,38.711a1.556,1.556,0,0,0,2.366,0L45.273,15.366a1.556,1.556,0,0,0-.156-2.132ZM14.877,15.895l4.949,14.848L6.955,15.895Zm3.284,0H29.4L23.779,32.766Zm14.521,0H40.6L27.732,30.743Zm7.58-3.113H32.619L30.752,8.113h4.84ZM27.39,8.113l1.868,4.669H18.269l1.79-4.669Zm-15.424,0h4.763l-1.805,4.669H7.3Z" transform="translate(-2.019 -5)" fill="#909090"/>
</svg>
