<?xml version="1.0" encoding="utf-8"?>
<!-- Generator: Adobe Illustrator 26.3.1, SVG Export Plug-In . SVG Version: 6.00 Build 0)  -->
<svg version="1.1" xmlns="http://www.w3.org/2000/svg" xmlns:xlink="http://www.w3.org/1999/xlink" x="0px" y="0px"
	 viewBox="0 0 167.5 51" style="enable-background:new 0 0 167.5 51;" xml:space="preserve">
<style type="text/css">
	.st0{fill:#4B5562;}
	.st1{fill:#4B5562;stroke:#4AD7D1;stroke-width:2.2;stroke-miterlimit:10;}
</style>
<g id="Layer_2">
</g>
<g id="Layer_1">
	<g>
		<g>
			<path class="st0" d="M22.1,29.2c1.4,1.4,2.3,3.4,2.3,5.7c0,2-0.7,4.1-2.3,5.6c-1.4,1.3-3.3,2.2-5.8,2.2c-2.8,0-4.7-1.1-5.8-2.2
				C9,39.2,8.1,37.2,8.1,35c0-2.2,1-4.3,2.3-5.7c1-1,2.9-2.2,5.9-2.2C18.7,27.1,20.6,27.8,22.1,29.2z M13,31.5
				c-0.7,0.6-1.3,1.7-1.3,3.4c0,1.4,0.4,2.5,1.4,3.4c1,0.9,2,1.2,3.2,1.2c1.5,0,2.6-0.6,3.3-1.3c0.6-0.6,1.3-1.6,1.3-3.4
				c0-1.6-0.6-2.7-1.3-3.4c-0.7-0.7-1.9-1.3-3.3-1.3C15,30.3,13.8,30.7,13,31.5z"/>
			<path class="st0" d="M32.6,27.4c1.3,0,2.7,0.2,3.9,1.2c1.3,1.1,1.5,2.6,1.5,3.6c0,1.9-0.7,2.9-1.3,3.5c-1.2,1.2-2.8,1.3-3.8,1.3
				h-2.1v5.3h-3.5v-15H32.6z M30.7,34.3H32c0.5,0,1.3,0,1.9-0.6c0.3-0.3,0.6-0.8,0.6-1.5c0-0.6-0.2-1.1-0.6-1.5
				c-0.5-0.5-1.3-0.6-1.9-0.6h-1.2V34.3z"/>
			<path class="st0" d="M48.9,30.3h-5v2.9h4.8v2.9h-4.8v3.3h5v2.9h-8.5v-15h8.5V30.3z"/>
			<g>
				<path class="st0" d="M51.9,42.4v-15h3l8.1,9.7v-9.7h3.5v15h-3l-8.1-9.7v9.7H51.9z"/>
			</g>
			<path class="st0" d="M81.8,30.7c-0.5-0.5-1.2-1-2-1.4c-0.8-0.4-1.7-0.6-2.6-0.6c-3.5,0-6,2.8-6,6.3c0,4.1,3.3,6.1,6.1,6.1
				c1,0,2-0.3,2.8-0.7c0.9-0.4,1.5-1,1.7-1.3v2.1c-1.7,1.2-3.4,1.5-4.5,1.5c-4.5,0-7.8-3.4-7.8-7.7c0-4.5,3.4-7.8,7.9-7.8
				c0.9,0,2.6,0.1,4.4,1.5V30.7z"/>
			<path class="st0" d="M86.7,33.5h7.7v-6.1h1.7v15h-1.7v-7.3h-7.7v7.3h-1.7v-15h1.7V33.5z"/>
			<path class="st0" d="M108.4,38.2h-6.4l-1.8,4.2h-1.8l6.9-15.7l6.7,15.7h-1.8L108.4,38.2z M107.8,36.6l-2.5-6l-2.6,6H107.8z"/>
			<path class="st0" d="M114.4,42.4V26.8L126.1,39V27.4h1.7v15.7L116,30.8v11.6H114.4z"/>
			<path class="st0" d="M131.8,42.4V26.8L143.5,39V27.4h1.7v15.7l-11.7-12.3v11.6H131.8z"/>
			<path class="st0" d="M157.1,29h-6.1v4.5h5.9V35h-5.9v5.8h6.1v1.6h-7.8v-15h7.8V29z"/>
			<path class="st0" d="M162,27.4v13.4h5.5v1.6h-7.2v-15H162z"/>
			<path class="st1" d="M16.3,20.7"/>
			<g>
				<polygon class="st0" points="3.5,47.4 3.5,22.4 24.5,22.4 24.5,18.9 0,18.9 0,51 24.5,51 24.5,47.4 				"/>
			</g>
		</g>
		<g>
			<path class="st0" d="M0.5,0.4h3.1c1.9,0,3.1,1,3.1,2.7v0c0,1.8-1.5,2.7-3.3,2.7h-2v3H0.5V0.4z M3.5,4.9c1.4,0,2.3-0.7,2.3-1.8v0
				c0-1.2-0.9-1.8-2.3-1.8H1.5v3.7H3.5z"/>
			<path class="st0" d="M7.9,5.7L7.9,5.7c0-1.8,1.4-3.3,3.2-3.3c1.9,0,3.2,1.5,3.2,3.2v0c0,1.8-1.4,3.2-3.2,3.2
				C9.3,8.9,7.9,7.4,7.9,5.7z M13.5,5.7L13.5,5.7c0-1.4-1-2.4-2.3-2.4c-1.3,0-2.3,1.1-2.3,2.4v0c0,1.3,1,2.4,2.3,2.4
				C12.5,8.1,13.5,7,13.5,5.7z"/>
			<path class="st0" d="M15.2,2.6h1l1.6,5l1.7-5h0.8l1.7,5l1.6-5h1l-2.2,6.2h-0.8l-1.7-4.9l-1.7,4.9h-0.8L15.2,2.6z"/>
			<path class="st0" d="M25.4,5.7L25.4,5.7c0-1.8,1.3-3.3,3-3.3c1.8,0,2.9,1.5,2.9,3.3c0,0.1,0,0.2,0,0.3h-4.9
				c0.1,1.3,1.1,2.1,2.2,2.1c0.9,0,1.5-0.3,2-0.9l0.6,0.5c-0.6,0.7-1.4,1.2-2.6,1.2C26.8,8.9,25.4,7.6,25.4,5.7z M30.3,5.3
				c-0.1-1.1-0.7-2.1-2-2.1c-1.1,0-1.9,0.9-2,2.1H30.3z"/>
			<path class="st0" d="M32.9,2.6h0.9v1.6c0.5-1,1.4-1.8,2.5-1.7v1h-0.1c-1.4,0-2.5,1-2.5,2.8v2.5h-0.9V2.6z"/>
			<path class="st0" d="M37.1,5.7L37.1,5.7c0-1.8,1.3-3.3,3-3.3c1.8,0,2.9,1.5,2.9,3.3c0,0.1,0,0.2,0,0.3h-4.9
				c0.1,1.3,1.1,2.1,2.2,2.1c0.9,0,1.5-0.3,2-0.9l0.6,0.5c-0.6,0.7-1.4,1.2-2.6,1.2C38.5,8.9,37.1,7.6,37.1,5.7z M42,5.3
				c-0.1-1.1-0.7-2.1-2-2.1c-1.1,0-1.9,0.9-2,2.1H42z"/>
			<path class="st0" d="M44.2,5.7L44.2,5.7c0-2.1,1.5-3.3,3-3.3c1.2,0,1.9,0.6,2.4,1.3V0h0.9v8.8h-0.9V7.5c-0.5,0.7-1.2,1.4-2.4,1.4
				C45.7,8.9,44.2,7.7,44.2,5.7z M49.6,5.7L49.6,5.7c0-1.5-1.1-2.4-2.2-2.4c-1.2,0-2.2,0.9-2.2,2.4v0c0,1.5,1,2.4,2.2,2.4
				C48.5,8.1,49.6,7.1,49.6,5.7z"/>
			<path class="st0" d="M57.1,7.6v1.2h-0.9V0h0.9v3.8c0.5-0.7,1.2-1.4,2.4-1.4c1.5,0,3,1.2,3,3.2v0c0,2-1.5,3.2-3,3.2
				C58.3,8.9,57.6,8.3,57.1,7.6z M61.5,5.7L61.5,5.7c0-1.5-1-2.4-2.2-2.4c-1.2,0-2.2,1-2.2,2.4v0c0,1.4,1.1,2.4,2.2,2.4
				C60.5,8.1,61.5,7.2,61.5,5.7z"/>
			<path class="st0" d="M68.5,2.6h1L66.9,9c-0.5,1.3-1.1,1.8-2.1,1.8c-0.5,0-0.9-0.1-1.3-0.3l0.3-0.7c0.3,0.2,0.6,0.2,1,0.2
				c0.6,0,0.9-0.3,1.3-1.2l-2.8-6.2h1l2.3,5.2L68.5,2.6z"/>
		</g>
	</g>
</g>
</svg>
